PathFileType	4	(X/Y/Z)	C:/Users/opensim2020/Desktop/walking_exp_matlab/subject06_walking22_straight_02.trc	
DataRate	CameraRate	NumFrames	NumMarkers	Units	OrigDataRate	OrigDataStartFrame	OrigNumFrames	
100.00	100.00	4	44	mm	100.00	1299	81	
Frame#	Time	LFHD			RFHD			LBHD			RBHD			C7			T10			CLAV			STRN			RBAK			LSHO			LUPA			LELB			LFRM			LWRA			LWRB			LFIN			RSHO			RUPA			RELB			RFRM			RWRA			RWRB			RFIN			LASI			RASI			LPSI			RPSI			LTHI			LKNE			LTIB			LANK			LHEE			LTOE			RTHI			RKNE			RTIB			RANK			RHEE			RTOE			*39			*40			*41			*42			*43			
		X1	Y1	Z1	X2	Y2	Z2	X3	Y3	Z3	X4	Y4	Z4	X5	Y5	Z5	X6	Y6	Z6	X7	Y7	Z7	X8	Y8	Z8	X9	Y9	Z9	X10	Y10	Z10	X11	Y11	Z11	X12	Y12	Z12	X13	Y13	Z13	X14	Y14	Z14	X15	Y15	Z15	X16	Y16	Z16	X17	Y17	Z17	X18	Y18	Z18	X19	Y19	Z19	X20	Y20	Z20	X21	Y21	Z21	X22	Y22	Z22	X23	Y23	Z23	X24	Y24	Z24	X25	Y25	Z25	X26	Y26	Z26	X27	Y27	Z27	X28	Y28	Z28	X29	Y29	Z29	X30	Y30	Z30	X31	Y31	Z31	X32	Y32	Z32	X33	Y33	Z33	X34	Y34	Z34	X35	Y35	Z35	X36	Y36	Z36	X37	Y37	Z37	X38	Y38	Z38	X39	Y39	Z39	X40	Y40	Z40	X41	Y41	Z41	X42	Y42	Z42	X43	Y43	Z43	X44	Y44	Z44	

41	0.400	-895.91846	153.84264	1634.07983	-1026.74719	134.28043	1640.02234	-922.49823	286.38412	1585.36377	-1049.70569	265.17221	1595.72009	-987.03558	281.34335	1434.36035	-1005.87970	324.12427	1106.77161	-987.97089	173.35591	1354.59473	-990.83374	138.55318	1178.24963	-1077.60205	356.80444	1269.56226	-826.10968	232.49048	1378.85779	-760.29901	274.49265	1179.19775	-750.94806	305.82275	1071.57861	-719.79095	320.88037	924.80023	-741.48926	280.85431	796.13806	-720.22931	348.33749	808.79474	-708.00354	331.64786	720.07861	-1148.00635	216.58640	1398.01013	-1256.14050	261.79904	1214.14148	-1281.18506	251.54016	1097.62439	-1296.75671	190.04893	999.40234	-1252.33228	74.77345	910.49084	-1296.51526	117.63443	883.40088	-1291.31396	47.52291	837.62274	-902.00824	143.78574	946.85205	-1120.27246	155.27161	949.48181	-918.98511	303.65411	968.47675	-1087.33667	305.30261	976.73340	-831.70862	130.75484	640.71301	-863.30658	55.90018	497.23157	-872.87573	33.14473	243.27919	-913.48285	-8.66962	75.29368	-963.39270	21.19456	52.26627	-906.35474	-153.53481	80.39013	-1161.10840	251.70270	618.59015	-1138.60083	277.38501	494.23560	-1129.50195	408.19672	255.38538	-1083.23828	487.96432	87.53353	-1040.05225	535.10895	72.76719	-1083.61292	346.70047	30.49203	-963.92151	243.29630	1683.40125												 
42	0.410	-894.85834	138.58992	1631.26392	-1025.52734	118.42247	1637.61426	-922.15442	270.86816	1582.43750	-1049.16162	249.01674	1592.98254	-986.64844	265.47806	1431.81860	-1005.30640	308.33542	1104.12097	-987.36084	157.44307	1351.94763	-990.50531	122.91319	1175.61255	-1077.57532	340.89117	1267.41980	-825.54901	216.79723	1375.97339	-759.84235	261.76971	1177.13428	-750.48102	295.15240	1070.13831	-718.78448	313.34247	923.83105	-740.12878	275.96994	794.02106	-719.30280	343.11169	808.44580	-706.37994	328.70804	719.58575	-1147.41467	200.00424	1395.52246	-1256.28113	243.75793	1211.70862	-1281.40967	232.78773	1095.61902	-1296.34192	168.89789	999.22479	-1250.74548	51.41243	914.08716	-1294.84375	93.24303	885.53125	-1289.18567	21.67607	841.94336	-901.90875	126.79144	944.65863	-1120.63660	139.74255	947.31177	-917.89435	286.62796	965.22443	-1086.20923	289.64908	973.80542	-829.53400	114.48112	637.30823	-863.16321	39.30819	494.18719	-872.18219	6.61914	241.95697	-911.95172	-44.07168	75.92043	-961.60272	-15.15084	51.59148	-905.37579	-189.35648	87.02749	-1161.40088	238.62798	617.10059	-1139.00049	265.80011	492.86234	-1129.61279	402.10626	256.86264	-1083.38916	486.09018	90.88605	-1040.16382	533.72504	77.62106	-1083.44495	346.49899	30.40329	-963.23859	227.82031	1680.62830												 
43	0.420	-893.78204	123.23728	1628.76025	-1024.41296	102.45332	1635.23083	-921.76788	255.36946	1579.66736	-1048.71741	232.91539	1590.40027	-986.13031	249.62340	1429.33618	-1004.60889	292.31799	1101.45984	-986.63593	141.60234	1349.31079	-989.99780	107.10473	1173.05835	-1077.41040	324.98801	1265.26746	-824.88757	201.10822	1373.21704	-759.26776	248.89192	1175.27771	-749.93793	284.35507	1068.97375	-718.26233	305.30685	923.03613	-738.63165	270.32715	792.47821	-718.52441	337.32333	808.33545	-705.09106	324.88498	719.29150	-1146.76831	183.54192	1393.08154	-1256.06140	225.94772	1209.18408	-1281.40955	214.24785	1093.55664	-1295.78198	148.21182	998.93109	-1249.16577	28.79907	917.37982	-1293.28235	69.55019	887.44690	-1287.22461	-3.20936	846.12195	-901.90704	109.47675	942.48260	-1120.96118	124.66183	945.00342	-916.56989	269.17722	962.30353	-1084.97900	273.85382	971.01056	-828.15063	97.15472	634.46545	-862.98199	22.27428	491.68381	-871.48383	-18.29038	241.01912	-910.67963	-76.02173	76.92821	-960.15448	-47.79898	51.45888	-904.72095	-221.36624	92.89055	-1161.64087	225.01270	615.43103	-1139.22717	252.87579	491.21381	-1129.83350	394.97101	258.31754	-1084.04395	484.00031	94.82511	-1040.93970	531.96649	83.01598	-1083.34753	346.27750	30.45336	-962.48871	212.21657	1677.95215												 
44	0.430	-892.71375	107.68840	1626.36389	-1023.32001	86.42355	1632.94055	-921.19720	239.67725	1577.09009	-1048.12488	216.75949	1587.88477	-985.46350	233.83081	1427.00854	-1003.92523	276.11539	1098.91077	-985.83124	125.66327	1346.93628	-989.48785	91.10376	1170.78455	-1077.08179	309.18433	1263.14404	-824.11072	185.50095	1370.68628	-758.55597	235.79961	1173.63586	-749.32983	273.16650	1067.96021	-717.54950	296.70294	922.44012	-737.45673	264.45978	790.95697	-717.79309	330.63712	808.31732	-703.89594	319.82983	719.18561	-1145.96350	167.08426	1390.73621	-1255.74854	208.20268	1206.76587	-1281.19629	195.94354	1091.54749	-1294.73535	127.73990	998.50739	-1247.56482	6.78842	920.35321	-1291.77832	46.50158	889.15607	-1285.28198	-27.13819	849.86981	-901.98798	91.92229	940.42993	-1121.40198	108.64067	943.19257	-915.25146	251.48875	959.81647	-1083.52881	257.31723	968.17456	-827.70270	78.86468	632.27643	-862.65045	4.93106	489.65643	-870.71686	-41.73333	240.25850	-909.92932	-104.18687	77.67096	-959.24072	-76.46379	51.31481	-904.48700	-249.23840	97.46721	-1161.81677	210.74081	613.63922	-1139.37927	238.99098	489.23477	-1130.19910	387.10654	259.91159	-1084.70850	481.01636	99.15244	-1041.72034	529.57092	89.33501	-1083.21912	345.99265	30.53804	-961.81714	196.47200	1675.47180												 
